<svg xmlns="http://www.w3.org/2000/svg" xmlns:xlink="http://www.w3.org/1999/xlink" width="500" zoomAndPan="magnify" viewBox="0 0 375 374.999991" height="500" preserveAspectRatio="xMidYMid meet" version="1.0"><defs><g/><clipPath id="e1dc1a82a3"><path d="M 91.527344 97.238281 L 283.527344 97.238281 L 283.527344 220.988281 L 91.527344 220.988281 Z M 91.527344 97.238281 " clip-rule="nonzero"/></clipPath></defs><rect x="-37.5" width="450" fill="#ffffff" y="-37.499999" height="449.999989" fill-opacity="1"/><rect x="-37.5" width="450" fill="#ffffff" y="-37.499999" height="449.999989" fill-opacity="1"/><rect x="-37.5" width="450" fill="#ffffff" y="-37.499999" height="449.999989" fill-opacity="1"/><g clip-path="url(#e1dc1a82a3)"><path fill="#38b6ff" d="M 170.882812 97.4375 C 172.425781 97.542969 173.960938 97.746094 175.480469 98.039062 C 177 98.335938 178.5 98.722656 179.972656 99.199219 C 181.445312 99.679688 182.882812 100.246094 184.289062 100.898438 C 185.691406 101.554688 187.050781 102.292969 188.363281 103.113281 C 189.679688 103.9375 190.9375 104.835938 192.140625 105.808594 C 193.34375 106.785156 194.484375 107.832031 195.5625 108.949219 C 196.636719 110.0625 197.640625 111.238281 198.574219 112.480469 C 199.507812 113.71875 200.359375 115.007812 201.132812 116.351562 L 211.882812 134.996094 L 212.273438 132.683594 C 212.585938 131.519531 212.980469 130.382812 213.457031 129.277344 C 213.9375 128.171875 214.492188 127.105469 215.128906 126.082031 C 215.765625 125.058594 216.472656 124.089844 217.25 123.167969 C 218.027344 122.25 218.871094 121.394531 219.773438 120.597656 C 220.679688 119.804688 221.636719 119.078125 222.648438 118.425781 C 223.660156 117.773438 224.714844 117.199219 225.808594 116.699219 C 226.90625 116.203125 228.03125 115.789062 229.191406 115.457031 C 230.347656 115.125 231.523438 114.882812 232.714844 114.722656 C 233.910156 114.566406 235.105469 114.5 236.308594 114.519531 C 237.515625 114.539062 238.710938 114.644531 239.898438 114.839844 C 241.085938 115.039062 242.25 115.320312 243.398438 115.6875 C 244.542969 116.058594 245.65625 116.507812 246.734375 117.042969 C 247.8125 117.574219 248.847656 118.183594 249.839844 118.871094 C 250.828125 119.554688 251.761719 120.3125 252.640625 121.136719 C 253.519531 121.960938 254.332031 122.84375 255.078125 123.789062 C 255.828125 124.730469 256.503906 125.726562 257.105469 126.769531 L 280.246094 166.898438 C 280.644531 167.597656 281.011719 168.308594 281.34375 169.042969 C 281.671875 169.773438 281.96875 170.519531 282.226562 171.28125 C 282.480469 172.039062 282.703125 172.8125 282.882812 173.59375 C 283.066406 174.375 283.210938 175.164062 283.3125 175.960938 C 283.417969 176.757812 283.484375 177.558594 283.511719 178.359375 C 283.535156 179.164062 283.523438 179.964844 283.46875 180.765625 C 283.417969 181.566406 283.324219 182.363281 283.195312 183.15625 C 283.0625 183.949219 282.894531 184.734375 282.6875 185.507812 C 282.480469 186.285156 282.234375 187.046875 281.953125 187.800781 C 281.667969 188.550781 281.351562 189.285156 280.996094 190.007812 C 280.640625 190.726562 280.25 191.429688 279.828125 192.109375 C 279.402344 192.792969 278.949219 193.453125 278.460938 194.089844 C 277.972656 194.726562 277.453125 195.335938 276.90625 195.921875 C 276.355469 196.511719 275.78125 197.066406 275.175781 197.597656 C 274.574219 198.125 273.945312 198.625 273.296875 199.09375 C 272.644531 199.558594 271.96875 199.996094 271.273438 200.394531 C 270.582031 200.796875 269.867188 201.164062 269.136719 201.496094 C 268.40625 201.828125 267.660156 202.121094 266.902344 202.378906 C 266.144531 202.636719 265.371094 202.859375 264.589844 203.039062 C 263.808594 203.222656 263.023438 203.367188 262.226562 203.46875 C 261.433594 203.574219 260.632812 203.640625 259.832031 203.667969 C 259.03125 203.691406 258.230469 203.679688 257.429688 203.625 C 256.628906 203.574219 255.832031 203.480469 255.042969 203.351562 C 254.25 203.21875 253.46875 203.050781 252.691406 202.84375 C 251.917969 202.636719 251.15625 202.390625 250.40625 202.105469 C 249.65625 201.824219 248.917969 201.503906 248.199219 201.148438 C 247.480469 200.792969 246.78125 200.402344 246.101562 199.980469 C 245.417969 199.554688 244.761719 199.097656 244.125 198.609375 C 243.488281 198.121094 242.878906 197.601562 242.292969 197.050781 C 241.707031 196.503906 241.148438 195.925781 240.621094 195.324219 C 240.09375 194.71875 239.59375 194.089844 239.128906 193.4375 C 238.660156 192.785156 238.226562 192.109375 237.824219 191.414062 L 233.359375 183.769531 L 233.359375 185.46875 C 233.214844 187.480469 232.914062 189.46875 232.453125 191.433594 C 231.992188 193.398438 231.378906 195.3125 230.613281 197.179688 C 229.847656 199.046875 228.941406 200.839844 227.890625 202.5625 C 226.839844 204.28125 225.660156 205.910156 224.347656 207.445312 C 223.039062 208.976562 221.617188 210.398438 220.082031 211.703125 C 218.546875 213.011719 216.917969 214.1875 215.195312 215.234375 C 213.472656 216.28125 211.679688 217.183594 209.8125 217.945312 C 207.945312 218.703125 206.03125 219.3125 204.066406 219.769531 C 202.105469 220.222656 200.117188 220.519531 198.109375 220.660156 C 196.097656 220.796875 194.089844 220.773438 192.082031 220.59375 C 190.078125 220.410156 188.097656 220.070312 186.144531 219.574219 C 184.191406 219.078125 182.289062 218.425781 180.441406 217.625 C 178.59375 216.824219 176.816406 215.882812 175.117188 214.800781 C 173.417969 213.714844 171.816406 212.503906 170.308594 211.164062 C 168.800781 209.824219 167.410156 208.375 166.132812 206.8125 C 164.859375 205.25 163.714844 203.597656 162.699219 201.855469 L 155.914062 190.128906 L 155.230469 194.1875 C 154.921875 195.351562 154.527344 196.484375 154.046875 197.59375 C 153.570312 198.699219 153.011719 199.761719 152.378906 200.785156 C 151.742188 201.808594 151.035156 202.78125 150.257812 203.699219 C 149.476562 204.621094 148.636719 205.476562 147.730469 206.273438 C 146.828125 207.066406 145.871094 207.789062 144.859375 208.445312 C 143.847656 209.097656 142.792969 209.671875 141.695312 210.171875 C 140.601562 210.667969 139.472656 211.082031 138.316406 211.414062 C 137.160156 211.742188 135.984375 211.988281 134.789062 212.144531 C 133.597656 212.304688 132.398438 212.371094 131.195312 212.351562 C 129.992188 212.332031 128.796875 212.222656 127.609375 212.027344 C 126.421875 211.832031 125.253906 211.550781 124.109375 211.179688 C 122.964844 210.8125 121.851562 210.359375 120.773438 209.828125 C 119.691406 209.292969 118.65625 208.683594 117.667969 208 C 116.679688 207.3125 115.746094 206.558594 114.867188 205.734375 C 113.988281 204.910156 113.175781 204.027344 112.425781 203.082031 C 111.679688 202.136719 111.003906 201.144531 110.402344 200.101562 L 94.773438 173.070312 C 94.0625 171.855469 93.460938 170.585938 92.964844 169.265625 C 92.472656 167.945312 92.097656 166.59375 91.835938 165.207031 C 91.574219 163.820312 91.4375 162.421875 91.417969 161.015625 C 91.398438 159.605469 91.5 158.203125 91.71875 156.8125 C 91.941406 155.417969 92.28125 154.054688 92.738281 152.722656 C 93.195312 151.390625 93.761719 150.105469 94.441406 148.867188 C 95.117188 147.632812 95.898438 146.464844 96.777344 145.363281 C 97.65625 144.261719 98.625 143.246094 99.679688 142.3125 C 100.734375 141.378906 101.859375 140.539062 103.058594 139.800781 C 104.257812 139.0625 105.511719 138.429688 106.816406 137.910156 C 108.125 137.386719 109.46875 136.980469 110.84375 136.6875 C 112.222656 136.398438 113.613281 136.226562 115.023438 136.175781 C 116.429688 136.125 117.828125 136.195312 119.222656 136.390625 C 120.621094 136.582031 121.988281 136.890625 123.328125 137.320312 C 124.671875 137.746094 125.964844 138.285156 127.214844 138.9375 C 128.460938 139.589844 129.644531 140.34375 130.761719 141.199219 L 130.507812 140.082031 C 130.417969 139.390625 130.351562 138.691406 130.304688 137.996094 C 130.253906 137.296875 130.226562 136.597656 130.214844 135.898438 C 130.203125 135.199219 130.214844 134.496094 130.242188 133.796875 C 130.269531 133.097656 130.320312 132.402344 130.386719 131.703125 C 130.453125 131.007812 130.539062 130.3125 130.644531 129.621094 C 130.75 128.929688 130.875 128.242188 131.015625 127.554688 C 131.160156 126.871094 131.320312 126.191406 131.503906 125.515625 C 131.683594 124.839844 131.882812 124.167969 132.101562 123.503906 C 132.320312 122.835938 132.554688 122.179688 132.808594 121.527344 C 133.0625 120.875 133.335938 120.230469 133.625 119.59375 C 133.914062 118.957031 134.222656 118.328125 134.546875 117.707031 C 134.871094 117.089844 135.210938 116.476562 135.570312 115.875 C 135.925781 115.277344 136.300781 114.683594 136.691406 114.105469 C 137.082031 113.523438 137.488281 112.953125 137.910156 112.398438 C 138.332031 111.839844 138.769531 111.292969 139.222656 110.757812 C 139.675781 110.226562 140.140625 109.703125 140.621094 109.195312 C 141.101562 108.6875 141.597656 108.195312 142.105469 107.714844 C 142.613281 107.234375 143.132812 106.769531 143.667969 106.316406 C 144.203125 105.863281 144.75 105.425781 145.304688 105.007812 C 145.863281 104.585938 146.433594 104.179688 147.011719 103.789062 C 147.59375 103.398438 148.183594 103.023438 148.785156 102.667969 C 149.386719 102.308594 149.996094 101.96875 150.617188 101.644531 C 151.234375 101.324219 151.863281 101.015625 152.5 100.726562 C 153.136719 100.4375 153.78125 100.167969 154.433594 99.914062 C 155.085938 99.660156 155.742188 99.425781 156.40625 99.210938 C 157.070312 98.992188 157.742188 98.792969 158.417969 98.613281 C 159.09375 98.433594 159.773438 98.273438 160.457031 98.132812 C 161.140625 97.988281 161.828125 97.867188 162.519531 97.761719 C 163.210938 97.660156 163.90625 97.574219 164.601562 97.507812 C 165.296875 97.441406 165.996094 97.394531 166.691406 97.367188 C 167.390625 97.339844 168.089844 97.332031 168.789062 97.34375 C 169.488281 97.355469 170.183594 97.386719 170.882812 97.4375 Z M 170.882812 97.4375 " fill-opacity="1" fill-rule="evenodd"/></g><g fill="#737373" fill-opacity="1"><g transform="translate(90.214889, 272.375181)"><g><path d="M 15.90625 0.5 C 13.039062 0.5 10.570312 -0.128906 8.5 -1.390625 C 6.425781 -2.660156 4.816406 -4.425781 3.671875 -6.6875 C 2.535156 -8.957031 1.96875 -11.597656 1.96875 -14.609375 C 1.96875 -17.585938 2.535156 -20.207031 3.671875 -22.46875 C 4.816406 -24.738281 6.425781 -26.515625 8.5 -27.796875 C 10.570312 -29.078125 13.039062 -29.71875 15.90625 -29.71875 C 19.238281 -29.71875 21.953125 -28.914062 24.046875 -27.3125 C 26.148438 -25.71875 27.5 -23.484375 28.09375 -20.609375 L 24.203125 -20.609375 C 23.753906 -22.421875 22.84375 -23.875 21.46875 -24.96875 C 20.09375 -26.070312 18.238281 -26.625 15.90625 -26.625 C 13.8125 -26.625 11.984375 -26.144531 10.421875 -25.1875 C 8.867188 -24.226562 7.664062 -22.847656 6.8125 -21.046875 C 5.96875 -19.253906 5.546875 -17.109375 5.546875 -14.609375 C 5.546875 -12.097656 5.96875 -9.945312 6.8125 -8.15625 C 7.664062 -6.363281 8.867188 -4.988281 10.421875 -4.03125 C 11.984375 -3.070312 13.8125 -2.59375 15.90625 -2.59375 C 18.238281 -2.59375 20.09375 -3.125 21.46875 -4.1875 C 22.84375 -5.257812 23.753906 -6.6875 24.203125 -8.46875 L 28.09375 -8.46875 C 27.5 -5.65625 26.148438 -3.457031 24.046875 -1.875 C 21.953125 -0.289062 19.238281 0.5 15.90625 0.5 Z M 15.90625 0.5 "/></g></g></g><g fill="#737373" fill-opacity="1"><g transform="translate(118.380866, 272.375181)"><g><path d="M 2.875 0 L 2.875 -30.046875 L 6.390625 -30.046875 L 6.390625 0 Z M 2.875 0 "/></g></g></g><g fill="#737373" fill-opacity="1"><g transform="translate(125.766495, 272.375181)"><g><path d="M 12.3125 0.5 C 10.363281 0.5 8.609375 0.0546875 7.046875 -0.828125 C 5.492188 -1.722656 4.265625 -2.984375 3.359375 -4.609375 C 2.453125 -6.234375 2 -8.144531 2 -10.34375 C 2 -12.539062 2.457031 -14.453125 3.375 -16.078125 C 4.289062 -17.710938 5.535156 -18.972656 7.109375 -19.859375 C 8.679688 -20.753906 10.441406 -21.203125 12.390625 -21.203125 C 14.335938 -21.203125 16.085938 -20.753906 17.640625 -19.859375 C 19.203125 -18.972656 20.4375 -17.710938 21.34375 -16.078125 C 22.25 -14.453125 22.703125 -12.539062 22.703125 -10.34375 C 22.703125 -8.144531 22.242188 -6.234375 21.328125 -4.609375 C 20.410156 -2.984375 19.164062 -1.722656 17.59375 -0.828125 C 16.019531 0.0546875 14.257812 0.5 12.3125 0.5 Z M 12.3125 -2.5 C 13.507812 -2.5 14.617188 -2.789062 15.640625 -3.375 C 16.671875 -3.957031 17.503906 -4.832031 18.140625 -6 C 18.785156 -7.175781 19.109375 -8.625 19.109375 -10.34375 C 19.109375 -12.070312 18.796875 -13.519531 18.171875 -14.6875 C 17.546875 -15.851562 16.71875 -16.726562 15.6875 -17.3125 C 14.65625 -17.90625 13.554688 -18.203125 12.390625 -18.203125 C 11.191406 -18.203125 10.078125 -17.90625 9.046875 -17.3125 C 8.023438 -16.726562 7.191406 -15.851562 6.546875 -14.6875 C 5.910156 -13.519531 5.59375 -12.070312 5.59375 -10.34375 C 5.59375 -8.625 5.910156 -7.175781 6.546875 -6 C 7.191406 -4.832031 8.019531 -3.957031 9.03125 -3.375 C 10.050781 -2.789062 11.144531 -2.5 12.3125 -2.5 Z M 12.3125 -2.5 "/></g></g></g><g fill="#737373" fill-opacity="1"><g transform="translate(148.591335, 272.375181)"><g><path d="M 10.4375 0.5 C 7.988281 0.5 6.039062 -0.242188 4.59375 -1.734375 C 3.144531 -3.222656 2.421875 -5.507812 2.421875 -8.59375 L 2.421875 -20.703125 L 5.921875 -20.703125 L 5.921875 -8.96875 C 5.921875 -4.65625 7.691406 -2.5 11.234375 -2.5 C 13.035156 -2.5 14.523438 -3.144531 15.703125 -4.4375 C 16.890625 -5.738281 17.484375 -7.582031 17.484375 -9.96875 L 17.484375 -20.703125 L 21 -20.703125 L 21 0 L 17.828125 0 L 17.5625 -3.71875 C 16.925781 -2.40625 15.972656 -1.375 14.703125 -0.625 C 13.441406 0.125 12.019531 0.5 10.4375 0.5 Z M 10.4375 0.5 "/></g></g></g><g fill="#737373" fill-opacity="1"><g transform="translate(170.581629, 272.375181)"><g><path d="M 12.265625 0.5 C 10.210938 0.5 8.410156 0.0234375 6.859375 -0.921875 C 5.316406 -1.867188 4.117188 -3.160156 3.265625 -4.796875 C 2.421875 -6.441406 2 -8.304688 2 -10.390625 C 2 -12.472656 2.429688 -14.328125 3.296875 -15.953125 C 4.160156 -17.585938 5.359375 -18.867188 6.890625 -19.796875 C 8.421875 -20.734375 10.226562 -21.203125 12.3125 -21.203125 C 14.007812 -21.203125 15.507812 -20.851562 16.8125 -20.15625 C 18.125 -19.457031 19.140625 -18.484375 19.859375 -17.234375 L 19.859375 -30.046875 L 23.375 -30.046875 L 23.375 0 L 20.203125 0 L 19.859375 -3.421875 C 19.191406 -2.421875 18.234375 -1.515625 16.984375 -0.703125 C 15.734375 0.0976562 14.160156 0.5 12.265625 0.5 Z M 12.640625 -2.546875 C 14.035156 -2.546875 15.269531 -2.867188 16.34375 -3.515625 C 17.414062 -4.171875 18.25 -5.082031 18.84375 -6.25 C 19.4375 -7.425781 19.734375 -8.789062 19.734375 -10.34375 C 19.734375 -11.90625 19.4375 -13.269531 18.84375 -14.4375 C 18.25 -15.601562 17.414062 -16.515625 16.34375 -17.171875 C 15.269531 -17.828125 14.035156 -18.15625 12.640625 -18.15625 C 11.273438 -18.15625 10.054688 -17.828125 8.984375 -17.171875 C 7.921875 -16.515625 7.085938 -15.601562 6.484375 -14.4375 C 5.890625 -13.269531 5.59375 -11.90625 5.59375 -10.34375 C 5.59375 -8.789062 5.890625 -7.425781 6.484375 -6.25 C 7.085938 -5.082031 7.921875 -4.171875 8.984375 -3.515625 C 10.054688 -2.867188 11.273438 -2.546875 12.640625 -2.546875 Z M 12.640625 -2.546875 "/></g></g></g><g fill="#737373" fill-opacity="1"><g transform="translate(194.908676, 272.375181)"><g/></g></g><g fill="#737373" fill-opacity="1"><g transform="translate(204.088597, 272.375181)"><g><path d="M 3.09375 0 L 3.09375 -29.21875 L 6.59375 -29.21875 L 22.15625 -5.796875 L 22.15625 -29.21875 L 25.671875 -29.21875 L 25.671875 0 L 22.15625 0 L 6.59375 -23.40625 L 6.59375 0 Z M 3.09375 0 "/></g></g></g><g fill="#737373" fill-opacity="1"><g transform="translate(230.961024, 272.375181)"><g><path d="M 5.015625 -25.296875 C 4.316406 -25.296875 3.738281 -25.523438 3.28125 -25.984375 C 2.820312 -26.441406 2.59375 -27.019531 2.59375 -27.71875 C 2.59375 -28.382812 2.820312 -28.9375 3.28125 -29.375 C 3.738281 -29.820312 4.316406 -30.046875 5.015625 -30.046875 C 5.679688 -30.046875 6.25 -29.820312 6.71875 -29.375 C 7.1875 -28.9375 7.421875 -28.382812 7.421875 -27.71875 C 7.421875 -27.019531 7.1875 -26.441406 6.71875 -25.984375 C 6.25 -25.523438 5.679688 -25.296875 5.015625 -25.296875 Z M 3.25 0 L 3.25 -20.703125 L 6.765625 -20.703125 L 6.765625 0 Z M 3.25 0 "/></g></g></g><g fill="#737373" fill-opacity="1"><g transform="translate(239.05603, 272.375181)"><g><path d="M 2.875 0 L 2.875 -20.703125 L 6.046875 -20.703125 L 6.265625 -16.984375 C 6.929688 -18.296875 7.890625 -19.328125 9.140625 -20.078125 C 10.390625 -20.828125 11.804688 -21.203125 13.390625 -21.203125 C 15.835938 -21.203125 17.789062 -20.457031 19.25 -18.96875 C 20.71875 -17.476562 21.453125 -15.191406 21.453125 -12.109375 L 21.453125 0 L 17.953125 0 L 17.953125 -11.734375 C 17.953125 -16.046875 16.171875 -18.203125 12.609375 -18.203125 C 10.828125 -18.203125 9.34375 -17.550781 8.15625 -16.25 C 6.976562 -14.957031 6.390625 -13.113281 6.390625 -10.71875 L 6.390625 0 Z M 2.875 0 "/></g></g></g><g fill="#737373" fill-opacity="1"><g transform="translate(261.046324, 272.375181)"><g><path d="M 12.1875 0.5 C 10.207031 0.5 8.453125 0.046875 6.921875 -0.859375 C 5.390625 -1.765625 4.1875 -3.019531 3.3125 -4.625 C 2.4375 -6.238281 2 -8.144531 2 -10.34375 C 2 -12.519531 2.429688 -14.421875 3.296875 -16.046875 C 4.160156 -17.671875 5.363281 -18.9375 6.90625 -19.84375 C 8.445312 -20.75 10.234375 -21.203125 12.265625 -21.203125 C 14.273438 -21.203125 16.007812 -20.75 17.46875 -19.84375 C 18.925781 -18.9375 20.046875 -17.742188 20.828125 -16.265625 C 21.609375 -14.796875 22 -13.210938 22 -11.515625 C 22 -11.210938 21.988281 -10.90625 21.96875 -10.59375 C 21.957031 -10.289062 21.953125 -9.945312 21.953125 -9.5625 L 5.46875 -9.5625 C 5.550781 -7.96875 5.914062 -6.648438 6.5625 -5.609375 C 7.21875 -4.566406 8.039062 -3.78125 9.03125 -3.25 C 10.019531 -2.726562 11.070312 -2.46875 12.1875 -2.46875 C 13.632812 -2.46875 14.84375 -2.800781 15.8125 -3.46875 C 16.789062 -4.132812 17.503906 -5.035156 17.953125 -6.171875 L 21.40625 -6.171875 C 20.851562 -4.253906 19.789062 -2.660156 18.21875 -1.390625 C 16.644531 -0.128906 14.632812 0.5 12.1875 0.5 Z M 12.1875 -18.234375 C 10.519531 -18.234375 9.035156 -17.722656 7.734375 -16.703125 C 6.441406 -15.691406 5.703125 -14.210938 5.515625 -12.265625 L 18.53125 -12.265625 C 18.445312 -14.128906 17.804688 -15.585938 16.609375 -16.640625 C 15.410156 -17.703125 13.9375 -18.234375 12.1875 -18.234375 Z M 12.1875 -18.234375 "/></g></g></g></svg>