<svg xmlns="http://www.w3.org/2000/svg" viewBox="0 0 500 500"><g id="freepik--background-complete--inject-11"><rect y="382.4" width="500" height="0.25" style="fill:#ebebeb"></rect><rect x="416.78" y="398.49" width="33.12" height="0.25" style="fill:#ebebeb"></rect><rect x="333.38" y="398.49" width="70.81" height="0.25" style="fill:#ebebeb"></rect><rect x="275.14" y="389.21" width="19.19" height="0.25" style="fill:#ebebeb"></rect><rect x="52.46" y="390.89" width="34.29" height="0.25" style="fill:#ebebeb"></rect><rect x="95.65" y="390.89" width="62.35" height="0.25" style="fill:#ebebeb"></rect><rect x="188.33" y="395.11" width="36.81" height="0.25" style="fill:#ebebeb"></rect><path d="M237,337.8H43.91a5.71,5.71,0,0,1-5.7-5.71V60.66A5.71,5.71,0,0,1,43.91,55H237a5.71,5.71,0,0,1,5.71,5.71V332.09A5.71,5.71,0,0,1,237,337.8ZM43.91,55.2a5.46,5.46,0,0,0-5.45,5.46V332.09a5.46,5.46,0,0,0,5.45,5.46H237a5.47,5.47,0,0,0,5.46-5.46V60.66A5.47,5.47,0,0,0,237,55.2Z" style="fill:#ebebeb"></path><path d="M453.31,337.8H260.21a5.72,5.72,0,0,1-5.71-5.71V60.66A5.72,5.72,0,0,1,260.21,55h193.1A5.71,5.71,0,0,1,459,60.66V332.09A5.71,5.71,0,0,1,453.31,337.8ZM260.21,55.2a5.47,5.47,0,0,0-5.46,5.46V332.09a5.47,5.47,0,0,0,5.46,5.46h193.1a5.47,5.47,0,0,0,5.46-5.46V60.66a5.47,5.47,0,0,0-5.46-5.46Z" style="fill:#ebebeb"></path><rect x="75.83" y="75.65" width="135.7" height="117.57" transform="translate(287.37 268.87) rotate(180)" style="fill:#e6e6e6"></rect><rect x="72.82" y="75.65" width="135.7" height="117.57" transform="translate(281.33 268.87) rotate(180)" style="fill:#f5f5f5"></rect><rect x="86.08" y="72" width="109.17" height="124.87" transform="translate(275.1 -6.23) rotate(90)" style="fill:#fafafa"></rect><polygon points="153.02 189.02 175.65 79.85 128.31 79.85 105.69 189.02 153.02 189.02" style="fill:#fff"></polygon><rect x="24.79" y="133.3" width="109.17" height="2.28" transform="translate(213.81 55.07) rotate(90)" style="fill:#e6e6e6"></rect><rect x="75.06" y="163.8" width="131.22" height="5.64" transform="translate(281.33 333.25) rotate(180)" style="fill:#f5f5f5"></rect><rect x="205.25" y="282.47" width="21.67" height="93.97" transform="translate(432.16 658.92) rotate(180)" style="fill:#f0f0f0"></rect><rect x="63.72" y="376.44" width="159.03" height="5.95" transform="translate(286.48 758.84) rotate(180)" style="fill:#f0f0f0"></rect><rect x="59.56" y="282.47" width="145.68" height="93.97" style="fill:#f5f5f5"></rect><rect x="68.08" y="294.04" width="128.65" height="30.82" style="fill:#f0f0f0"></rect><rect x="68.08" y="334.06" width="128.65" height="30.82" style="fill:#f0f0f0"></rect><path d="M97.73,311.56h69.35a2.12,2.12,0,0,0,2.11-2.11h0a2.13,2.13,0,0,0-2.11-2.12H97.73a2.13,2.13,0,0,0-2.11,2.12h0A2.12,2.12,0,0,0,97.73,311.56Z" style="fill:#f5f5f5"></path><path d="M97.73,351.58h69.35a2.12,2.12,0,0,0,2.11-2.11h0a2.12,2.12,0,0,0-2.11-2.12H97.73a2.12,2.12,0,0,0-2.11,2.12h0A2.12,2.12,0,0,0,97.73,351.58Z" style="fill:#f5f5f5"></path><path d="M431.62,137.1c12.34-3.4,16.56-25.79-14.62-34.93C423.88,124.69,410.11,143,431.62,137.1Z" style="fill:#ebebeb"></path><path d="M434.35,146.82c9.73-10.51.53-34.29-34.51-24.57C419.66,139.59,417.4,165.15,434.35,146.82Z" style="fill:#e0e0e0"></path><path d="M424.75,149.52c-8.14-8.06,3.52-36.11,30.4-23.11C439.92,141,439,163.57,424.75,149.52Z" style="fill:#fafafa"></path><polygon points="416.63 165.22 440.32 165.22 442.11 149.19 414.85 149.19 416.63 165.22" style="fill:#e6e6e6"></polygon><path d="M414.58,152.06h27.8a1.77,1.77,0,0,0,1.77-1.77h0a1.77,1.77,0,0,0-1.77-1.77h-27.8a1.77,1.77,0,0,0-1.77,1.77h0A1.77,1.77,0,0,0,414.58,152.06Z" style="fill:#e6e6e6"></path><polygon points="217.31 355.25 217.31 355.25 217.31 355.25 217.31 355.25 217.31 328.1 239.92 328.1 239.92 328.1 239.92 328.1 239.92 328.1 239.92 300.96 262.54 300.96 262.54 300.96 262.54 273.81 285.15 273.81 285.15 246.66 307.77 246.66 307.77 246.66 307.77 246.66 307.77 246.66 307.77 219.52 330.38 219.52 330.38 219.52 330.38 219.52 330.38 219.52 330.38 192.37 353 192.37 353 192.37 353 192.37 353 192.37 353 165.22 375.62 165.22 500 165.22 500 382.4 217.31 382.4 194.69 382.4 194.69 355.25 217.31 355.25" style="fill:#fafafa"></polygon><polygon points="341.69 355.25 341.69 355.25 341.69 355.25 341.69 355.25 341.69 328.1 364.31 328.1 364.31 328.1 364.31 328.1 364.31 328.1 364.31 300.96 386.92 300.96 386.92 300.96 386.92 273.81 409.54 273.81 409.54 246.66 432.15 246.66 432.15 246.66 432.15 246.66 432.15 246.66 432.15 219.52 454.77 219.52 454.77 219.52 454.77 219.52 454.77 219.52 454.77 192.37 477.38 192.37 477.38 192.37 477.38 192.37 477.38 192.37 477.38 165.22 500 165.22 500 192.37 500 382.4 341.69 382.4 319.08 382.4 319.08 355.25 341.69 355.25" style="fill:#e0e0e0"></polygon><rect x="193.36" y="355.25" width="125.72" height="8.14" style="fill:#ebebeb"></rect><rect x="215.98" y="328.1" width="125.72" height="8.14" style="fill:#ebebeb"></rect><rect x="238.59" y="300.96" width="125.72" height="8.14" style="fill:#ebebeb"></rect><rect x="261.21" y="273.81" width="125.72" height="8.14" style="fill:#ebebeb"></rect><rect x="283.82" y="246.66" width="125.72" height="8.14" style="fill:#ebebeb"></rect><rect x="306.44" y="219.52" width="125.72" height="8.14" style="fill:#ebebeb"></rect><rect x="329.05" y="192.37" width="125.72" height="8.14" style="fill:#ebebeb"></rect><rect x="351.67" y="165.22" width="125.72" height="8.14" style="fill:#ebebeb"></rect></g><g id="freepik--Shadow--inject-11"><ellipse id="freepik--path--inject-11" cx="250" cy="416.24" rx="193.89" ry="11.32" style="fill:#f5f5f5"></ellipse></g><g id="freepik--Character--inject-11"><path d="M334.7,158.63c-.18,3-.53,5.75-.92,8.6s-.92,5.64-1.52,8.44a94,94,0,0,1-5.05,16.57l-.91,2-.22.5L326,195l-.16.32a8,8,0,0,1-1.15,1.74,6.91,6.91,0,0,1-1.92,1.51,6.78,6.78,0,0,1-2.28.72,8.72,8.72,0,0,1-3.63-.38,17.67,17.67,0,0,1-4.64-2.4,36.55,36.55,0,0,1-3.55-2.85,82,82,0,0,1-11.3-12.93l3.31-2.81c2,1.85,4,3.72,6,5.49a79.61,79.61,0,0,0,6.22,5,33,33,0,0,0,3.16,2,11,11,0,0,0,2.82,1.21c.34.07.58,0,.47,0a1.1,1.1,0,0,0-.63.29c-.06,0-.06,0,0,0l.32-.83.7-1.82a105.33,105.33,0,0,0,4.05-15.36c.53-2.62.9-5.29,1.3-7.94s.68-5.38.91-7.91Z" style="fill:#ffc3bd"></path><path d="M328.64,147.62c-3.73.95-6.34,16.29-6.34,16.29l10.27,7s9.85-15.47,7-19.57C336.57,147.05,334.08,146.24,328.64,147.62Z" style="fill:#407BFF"></path><path d="M328.64,147.62c-3.73.95-6.34,16.29-6.34,16.29l10.27,7s9.85-15.47,7-19.57C336.57,147.05,334.08,146.24,328.64,147.62Z" style="fill:#407BFF"></path><path d="M328.64,147.62c-3.73.95-6.34,16.29-6.34,16.29l10.27,7s9.85-15.47,7-19.57C336.57,147.05,334.08,146.24,328.64,147.62Z" style="opacity:0.4"></path><polygon points="328.97 151.05 326.11 166.5 331.88 170.42 328.97 151.05" style="opacity:0.30000000000000004"></polygon><path d="M300.85,177.29,296,169.57l-2.77,8.77s4,4.2,7.63,3.2Z" style="fill:#ffc3bd"></path><polygon points="288.8 167.02 286.88 174.48 293.19 178.34 295.96 169.57 288.8 167.02" style="fill:#ffc3bd"></polygon><polygon points="348.8 405.75 339.76 405.75 339.15 384.81 348.2 384.81 348.8 405.75" style="fill:#ffc3bd"></polygon><polygon points="428.59 363.75 421.7 369.61 405.93 355.53 412.82 349.68 428.59 363.75" style="fill:#ffc3bd"></polygon><path d="M419.81,368.91l6.69-7.66a.72.72,0,0,1,.94-.13l6.81,4.41a1.45,1.45,0,0,1,.26,2.15c-2.38,2.63-3.66,3.78-6.6,7.14-1.8,2.07-4.23,5.29-6.73,8.14s-5.46.55-4.67-.87c3.51-6.34,2.67-8.56,2.73-11.68A2.36,2.36,0,0,1,419.81,368.91Z" style="fill:#263238"></path><path d="M339.45,404.71h10.16a.72.72,0,0,1,.72.62l1.16,8A1.45,1.45,0,0,1,350,415c-3.54-.06-5.25-.27-9.72-.27-2.75,0-8.43.29-12.23.29s-4-3.76-2.41-4.09c7.08-1.53,9.87-3.63,12.26-5.64A2.36,2.36,0,0,1,339.45,404.71Z" style="fill:#263238"></path><polygon points="339.16 384.82 339.47 395.61 348.51 395.61 348.2 384.82 339.16 384.82" style="opacity:0.2"></polygon><polygon points="412.83 349.68 405.93 355.53 414.07 362.79 420.96 356.93 412.83 349.68" style="opacity:0.2"></polygon><path d="M328.64,147.62s-4.31,1.52,4.32,54.58h36.72c-.61-14.95-.63-24.17,6.51-54.84a109.35,109.35,0,0,0-15.59-2.06,117.35,117.35,0,0,0-16.68,0C336.76,146,328.64,147.62,328.64,147.62Z" style="fill:#407BFF"></path><path d="M328.64,147.62s-4.31,1.52,4.32,54.58h36.72c-.61-14.95-.63-24.17,6.51-54.84a109.35,109.35,0,0,0-15.59-2.06,117.35,117.35,0,0,0-16.68,0C336.76,146,328.64,147.62,328.64,147.62Z" style="opacity:0.4"></path><path d="M360.6,145.3a117.35,117.35,0,0,0-16.68,0c-.9.08-1.82.18-2.73.29a4.45,4.45,0,0,0-.5,3.9c1.17,2.91,5.39,3.25,8.47,3.25,11.37,0,13.29-6.64,13.37-6.92l.11-.4C362,145.38,361.28,145.33,360.6,145.3Z" style="fill:#fff"></path><path d="M359,126.53c-1.06,5.36-2.1,15.19,1.65,18.77,0,0-1.47,5.45-11.44,5.45-11,0-5.24-5.44-5.24-5.44,6-1.43,5.83-5.87,4.79-10Z" style="fill:#ffc3bd"></path><path d="M354.77,130.09l-6.06,5.17a17.35,17.35,0,0,1,.52,3c2.28-.33,5.42-2.84,5.67-5.23A7.94,7.94,0,0,0,354.77,130.09Z" style="opacity:0.2"></path><path d="M352.71,97.35C351.78,94.2,351,89.24,356.6,87c-2.19-2.68-2.72-7.72,0-10.71s6.8-1.89,6.8-1.89,1.2-7.31,10.09-6,4.93,7.16,4.93,7.16,12.13-2.4,12.94,9-6.15,10-6.15,10,5.41,4.54,2.41,9.53-9.93,3.27-9.93,3.27-3.26,8.82-10.94,3.8S352.71,97.35,352.71,97.35Z" style="fill:#263238"></path><path d="M334.7,104c-3,3.88-1.68,8.27,1,10,6.45,4.12,15.78-13.16,13.35-15.23S337.7,100.11,334.7,104Z" style="fill:#263238"></path><path d="M361.79,94.76c-4.24-1.71-8.54.08-9.88,2.66-3.27,6.29,11.58,17.62,15.88,9.76C370.34,102.51,366.16,96.52,361.79,94.76Z" style="fill:#407BFF"></path><path d="M360,114c.31,9,.63,12.76-3.44,17.77-6.11,7.53-17.2,5.95-20.18-2.75-2.68-7.83-2.73-21.18,5.66-25.56A12.24,12.24,0,0,1,360,114Z" style="fill:#ffc3bd"></path><path d="M358.65,118.71c-4-1.49-5-6.16-4.36-8-2-.08-6.37-.8-8-3.28-3.12,2-9.71,4-10.42.67s9.23-11.89,16.75-12.55c8.94-.78,17.76,8,15.49,16.41S358.65,118.71,358.65,118.71Z" style="fill:#263238"></path><path d="M333,202.2s-7.13,69.65-6.54,97.23c.62,28.68,11.13,94.09,11.13,94.09h12.22s-1.93-63.74-.85-91.9c1.18-30.71,10.93-99.42,10.93-99.42Z" style="fill:#263238"></path><polygon points="350.83 393.96 336.49 393.96 335.43 389.39 351.5 388.83 350.83 393.96" style="fill:#407BFF"></polygon><path d="M348.8,219.53c-9,18.14-1.81,51.24,1.38,63.56,1.63-18.5,4.39-41.11,6.54-57.71C355.36,216,353,211.16,348.8,219.53Z" style="opacity:0.2"></path><path d="M342.66,202.2s8.32,72.41,14.6,95.66c7.46,27.6,53.79,64.75,53.79,64.75l9.4-8s-33.58-40.36-39.29-54.9c-12.17-31-1.75-77.28-11.48-97.53Z" style="fill:#263238"></path><polygon points="421.95 354.2 410.29 364.1 405.93 361.49 419.12 349.22 421.95 354.2" style="fill:#407BFF"></polygon><path d="M346.69,117.76c.07.73-.26,1.35-.73,1.4s-.92-.51-1-1.23.26-1.36.74-1.4S346.62,117,346.69,117.76Z" style="fill:#263238"></path><path d="M338.49,118.55c.07.72-.26,1.35-.74,1.4s-.91-.51-1-1.24.26-1.35.73-1.39S338.42,117.82,338.49,118.55Z" style="fill:#263238"></path><path d="M337.71,117.34l-1.79-.34S337,118.28,337.71,117.34Z" style="fill:#263238"></path><path d="M340.77,119.59a19.51,19.51,0,0,1-2.14,4.88,3.17,3.17,0,0,0,2.64.24Z" style="fill:#ed847e"></path><path d="M345.3,127.1a7.05,7.05,0,0,1-1.21.22.21.21,0,0,1-.23-.19.22.22,0,0,1,.19-.24,5.8,5.8,0,0,0,4.48-2.69.2.2,0,0,1,.29-.09.22.22,0,0,1,.09.29A6,6,0,0,1,345.3,127.1Z" style="fill:#263238"></path><path d="M362.1,120.21a6.56,6.56,0,0,1-2.48,4.35c-1.83,1.4-3.59,0-3.8-2.19-.18-2,.54-5,2.72-5.58A3,3,0,0,1,362.1,120.21Z" style="fill:#ffc3bd"></path><path d="M347.57,112.62a.43.43,0,0,1-.33-.05,3.41,3.41,0,0,0-3.08-.3.45.45,0,0,1-.58-.2.43.43,0,0,1,.2-.57,4.25,4.25,0,0,1,3.9.34.42.42,0,0,1,.14.58A.44.44,0,0,1,347.57,112.62Z" style="fill:#263238"></path><path d="M334.47,115.11a.45.45,0,0,1-.32,0,.44.44,0,0,1-.17-.58,4.23,4.23,0,0,1,3.17-2.29.42.42,0,0,1,.46.39.43.43,0,0,1-.39.46,3.42,3.42,0,0,0-2.49,1.84A.39.39,0,0,1,334.47,115.11Z" style="fill:#263238"></path><path d="M379.94,157.11a145,145,0,0,1,5.27,15.27,95.9,95.9,0,0,1,3.32,16c.17,1.38.22,2.83.28,4.26v.81c0,.29-.05.59-.09.85a12.51,12.51,0,0,1-.34,1.48,14.56,14.56,0,0,1-1,2.41,35.19,35.19,0,0,1-5.06,7.09,86.89,86.89,0,0,1-12,10.93L367.43,213c3.33-3.89,6.69-7.88,9.54-12a32.61,32.61,0,0,0,3.5-6,9.35,9.35,0,0,0,.4-1.26,3.09,3.09,0,0,0,.05-.44.54.54,0,0,0,0-.13s0,0,0,0l0-.14c-.13-1.18-.22-2.36-.44-3.57a109.24,109.24,0,0,0-3.59-14.59c-1.53-4.84-3.24-9.75-5-14.43Z" style="fill:#ffc3bd"></path><path d="M376.19,147.36c3.68,1.12,8.1,13.79,8.1,13.79L370,171.35s-5.21-10.57-3.66-15.33C368,151.07,372,146.08,376.19,147.36Z" style="fill:#407BFF"></path><path d="M376.19,147.36c3.68,1.12,8.1,13.79,8.1,13.79L370,171.35s-5.21-10.57-3.66-15.33C368,151.07,372,146.08,376.19,147.36Z" style="opacity:0.4"></path><path d="M417.34,373.27a1.23,1.23,0,0,1-.95-.49.74.74,0,0,1-.18-.72c.34-1.1,3.48-2,3.84-2.1a.19.19,0,0,1,.22.07.21.21,0,0,1,0,.23c-.56,1.07-1.67,2.87-2.81,3Zm2.32-2.75c-1.24.4-2.86,1.09-3,1.67a.31.31,0,0,0,.09.31.8.8,0,0,0,.72.34C418.05,372.77,418.86,371.91,419.66,370.52Z" style="fill:#407BFF"></path><path d="M418.67,370.56a3.7,3.7,0,0,1-2.62-.74.75.75,0,0,1,0-.93,1.1,1.1,0,0,1,.81-.5c1.3-.16,3.27,1.54,3.35,1.61a.2.2,0,0,1,.07.2.2.2,0,0,1-.14.17A5,5,0,0,1,418.67,370.56Zm-1.59-1.75h-.14a.71.71,0,0,0-.51.31c-.15.23-.1.35,0,.43.39.51,2.17.7,3.25.5A5.43,5.43,0,0,0,417.08,368.81Z" style="fill:#407BFF"></path><path d="M336.05,406.29a3.38,3.38,0,0,1-2.19-.56,1.21,1.21,0,0,1-.39-1,.7.7,0,0,1,.37-.57c1.11-.61,4.71,1.23,5.12,1.45a.22.22,0,0,1,.11.22.21.21,0,0,1-.17.18A15.68,15.68,0,0,1,336.05,406.29Zm-1.61-1.87a.79.79,0,0,0-.4.08.25.25,0,0,0-.14.23.78.78,0,0,0,.25.68c.55.5,2,.58,4,.25A11.51,11.51,0,0,0,334.44,404.42Z" style="fill:#407BFF"></path><path d="M338.86,406l-.09,0c-1.08-.49-3.21-2.44-3-3.46,0-.24.21-.55.8-.61a1.58,1.58,0,0,1,1.19.37c1.13.95,1.34,3.38,1.35,3.49a.21.21,0,0,1-.09.19A.19.19,0,0,1,338.86,406Zm-2.16-3.67h-.12c-.4,0-.42.2-.43.25-.1.61,1.35,2.15,2.45,2.81a5,5,0,0,0-1.16-2.79A1.14,1.14,0,0,0,336.7,402.3Z" style="fill:#407BFF"></path><path d="M370.23,200l.94,3.29c.13.25-.17.51-.6.51H332.78c-.33,0-.61-.16-.63-.37l-.33-3.28c0-.23.26-.42.63-.42h37.19A.66.66,0,0,1,370.23,200Z" style="fill:#407BFF"></path><path d="M370.23,200l.94,3.29c.13.25-.17.51-.6.51H332.78c-.33,0-.61-.16-.63-.37l-.33-3.28c0-.23.26-.42.63-.42h37.19A.66.66,0,0,1,370.23,200Z" style="fill:#fff;opacity:0.30000000000000004"></path><path d="M365.24,204.2h1c.19,0,.34-.1.33-.23l-.47-4.27c0-.12-.18-.23-.38-.23h-1c-.2,0-.35.11-.33.23l.46,4.27C364.87,204.1,365,204.2,365.24,204.2Z" style="fill:#263238"></path><path d="M335.58,204.2h1c.2,0,.35-.1.34-.23l-.47-4.27c0-.12-.19-.23-.38-.23h-1c-.2,0-.35.11-.34.23l.47,4.27C335.21,204.1,335.38,204.2,335.58,204.2Z" style="fill:#263238"></path><path d="M350.41,204.2h1c.2,0,.35-.1.34-.23l-.47-4.27c0-.12-.18-.23-.38-.23h-1c-.2,0-.35.11-.33.23L350,204C350,204.1,350.21,204.2,350.41,204.2Z" style="fill:#263238"></path><path d="M345.92,116.55l-1.79-.34S345.15,117.49,345.92,116.55Z" style="fill:#263238"></path><path d="M312.82,243.89A91.9,91.9,0,1,1,365.2,124.94,91.89,91.89,0,0,1,312.82,243.89Z" style="fill:#407BFF;opacity:0.2"></path><path d="M296.19,67.85l-72.08,163.7c-1.11-.84-2.21-1.71-3.29-2.59a90.81,90.81,0,0,1-18-20.09h0l62.26-141.4A90.94,90.94,0,0,1,296.19,67.85Z" style="fill:#fff;opacity:0.1"></path><path d="M347.43,96.25,279.66,250.16a91.78,91.78,0,0,1-40.6-9.42l74-168.07A92,92,0,0,1,347.43,96.25Z" style="fill:#fff;opacity:0.1"></path><path d="M203.88,96.32a97.76,97.76,0,1,1,13.74,137.57A97.77,97.77,0,0,1,203.88,96.32ZM349,215.08a89.76,89.76,0,1,0-126.32,12.63A89.76,89.76,0,0,0,349,215.08Z" style="fill:#407BFF"></path><path d="M357.63,214.74c9.63,5.75,18.79,12.07,27.79,18.59s17.77,13.31,26.4,20.28,17.1,14.14,25.27,21.67q6.14,5.64,12,11.58c3.92,4,7.77,8,11.4,12.34a5.63,5.63,0,0,1-7,8.56c-5-2.7-9.68-5.68-14.35-8.73s-9.23-6.23-13.73-9.5c-9-6.52-17.71-13.39-26.24-20.48s-16.93-14.34-25.1-21.88-16.18-15.26-23.72-23.56a5.79,5.79,0,0,1,7.26-8.87Z" style="fill:#407BFF"></path><path d="M368.39,212l-9.66,1.47,6.91,6.06s5.46-2,6-5.7Z" style="fill:#ffc3bd"></path><polygon points="353.51 219.02 359.58 223.78 366.99 218.94 358.73 213.49 353.51 219.02" style="fill:#ffc3bd"></polygon></g><g id="freepik--Folder--inject-11"><path d="M307.84,229.55h0a12.7,12.7,0,0,1,11.71-8.33H399.6A9.46,9.46,0,0,1,409.32,232L388.64,405.51a12.58,12.58,0,0,1-12.27,10.73h-254a9.44,9.44,0,0,1-9.71-10.73L130,259.73A12.58,12.58,0,0,1,142.27,249H280.49A29.67,29.67,0,0,0,307.84,229.55Z" style="fill:#407BFF"></path><polygon points="117.23 408.25 382.64 408.25 397.76 229.67 132.36 229.67 117.23 408.25" style="fill:#f0f0f0"></polygon><polygon points="117.23 408.25 382.64 408.25 393.58 229.67 132.36 229.67 117.23 408.25" style="fill:#e0e0e0"></polygon><polygon points="117.23 408.25 382.64 408.25 391.76 224 126.36 224 117.23 408.25" style="fill:#f0f0f0"></polygon><polygon points="117.23 408.25 382.64 408.25 386.25 224 126.36 224 117.23 408.25" style="fill:#e0e0e0"></polygon><polygon points="117.23 408.25 382.64 408.25 384.22 219 118.82 219 117.23 408.25" style="fill:#f0f0f0"></polygon><polygon points="117.23 408.25 382.64 408.25 377.19 222.58 113.5 222.58 117.23 408.25" style="fill:#e0e0e0"></polygon><polygon points="117.23 408.25 382.64 408.25 374.76 224 109.36 224 117.23 408.25" style="fill:#f0f0f0"></polygon><polygon points="117.23 408.25 382.64 408.25 370.09 226.78 104.69 226.78 117.23 408.25" style="fill:#e0e0e0"></polygon><polygon points="117.23 408.25 382.64 408.25 368.09 228.33 102.69 228.33 117.23 408.25" style="fill:#f0f0f0"></polygon><path d="M250.14,240.82h0a8.65,8.65,0,0,1,9.05-8.53h80.05a14,14,0,0,1,13.14,11l31.63,162c1.18,6.07-2.78,11-8.85,11h-254c-6.08,0-12-4.93-13.15-11L81.92,271.74c-1.18-6.07,2.78-11,8.85-11H229C241,260.74,249.73,252.48,250.14,240.82Z" style="fill:#407BFF"></path><path d="M250.14,240.82h0a8.65,8.65,0,0,1,9.05-8.53h80.05a14,14,0,0,1,13.14,11l31.63,162c1.18,6.07-2.78,11-8.85,11h-254c-6.08,0-12-4.93-13.15-11L81.92,271.74c-1.18-6.07,2.78-11,8.85-11H229C241,260.74,249.73,252.48,250.14,240.82Z" style="opacity:0.2"></path></g></svg>